<?xml version="1.0"?>
<svg xmlns="http://www.w3.org/2000/svg" viewBox="0 0 436 136" width="436" height="136" style="shape-rendering:crispEdges">
  <defs></defs>
  <rect width="436" height="136" fill="#f2eeff"></rect>
  <g transform="translate(20,20)" style="shape-rendering:crispEdges">
    <g id="o-ring" fill="#4c1d9e"><rect x="18" y="0" width="6" height="6"></rect><rect x="24" y="0" width="6" height="6"></rect><rect x="30" y="0" width="6" height="6"></rect><rect x="36" y="0" width="6" height="6"></rect><rect x="42" y="0" width="6" height="6"></rect><rect x="48" y="0" width="6" height="6"></rect><rect x="54" y="0" width="6" height="6"></rect><rect x="60" y="0" width="6" height="6"></rect><rect x="66" y="0" width="6" height="6"></rect><rect x="72" y="0" width="6" height="6"></rect><rect x="6" y="6" width="6" height="6"></rect><rect x="12" y="6" width="6" height="6"></rect><rect x="78" y="6" width="6" height="6"></rect><rect x="84" y="6" width="6" height="6"></rect><rect x="0" y="12" width="6" height="6"></rect><rect x="6" y="12" width="6" height="6"></rect><rect x="84" y="12" width="6" height="6"></rect><rect x="90" y="12" width="6" height="6"></rect><rect x="0" y="18" width="6" height="6"></rect><rect x="90" y="18" width="6" height="6"></rect><rect x="0" y="24" width="6" height="6"></rect><rect x="90" y="24" width="6" height="6"></rect><rect x="0" y="30" width="6" height="6"></rect><rect x="90" y="30" width="6" height="6"></rect><rect x="0" y="36" width="6" height="6"></rect><rect x="90" y="36" width="6" height="6"></rect><rect x="0" y="42" width="6" height="6"></rect><rect x="90" y="42" width="6" height="6"></rect><rect x="0" y="48" width="6" height="6"></rect><rect x="90" y="48" width="6" height="6"></rect><rect x="0" y="54" width="6" height="6"></rect><rect x="90" y="54" width="6" height="6"></rect><rect x="0" y="60" width="6" height="6"></rect><rect x="90" y="60" width="6" height="6"></rect><rect x="0" y="66" width="6" height="6"></rect><rect x="90" y="66" width="6" height="6"></rect><rect x="0" y="72" width="6" height="6"></rect><rect x="90" y="72" width="6" height="6"></rect><rect x="0" y="78" width="6" height="6"></rect><rect x="6" y="78" width="6" height="6"></rect><rect x="84" y="78" width="6" height="6"></rect><rect x="90" y="78" width="6" height="6"></rect><rect x="6" y="84" width="6" height="6"></rect><rect x="12" y="84" width="6" height="6"></rect><rect x="78" y="84" width="6" height="6"></rect><rect x="84" y="84" width="6" height="6"></rect><rect x="18" y="90" width="6" height="6"></rect><rect x="24" y="90" width="6" height="6"></rect><rect x="30" y="90" width="6" height="6"></rect><rect x="36" y="90" width="6" height="6"></rect><rect x="42" y="90" width="6" height="6"></rect><rect x="48" y="90" width="6" height="6"></rect><rect x="54" y="90" width="6" height="6"></rect><rect x="60" y="90" width="6" height="6"></rect><rect x="66" y="90" width="6" height="6"></rect><rect x="72" y="90" width="6" height="6"></rect></g><g id="torii-gate" fill="#be185d"><rect x="18" y="6" width="6" height="6"></rect><rect x="24" y="6" width="6" height="6"></rect><rect x="30" y="6" width="6" height="6"></rect><rect x="36" y="6" width="6" height="6"></rect><rect x="42" y="6" width="6" height="6"></rect><rect x="48" y="6" width="6" height="6"></rect><rect x="54" y="6" width="6" height="6"></rect><rect x="60" y="6" width="6" height="6"></rect><rect x="66" y="6" width="6" height="6"></rect><rect x="72" y="6" width="6" height="6"></rect><rect x="30" y="12" width="6" height="6"></rect><rect x="36" y="12" width="6" height="6"></rect><rect x="54" y="12" width="6" height="6"></rect><rect x="60" y="12" width="6" height="6"></rect><rect x="30" y="18" width="6" height="6"></rect><rect x="36" y="18" width="6" height="6"></rect><rect x="54" y="18" width="6" height="6"></rect><rect x="60" y="18" width="6" height="6"></rect><rect x="24" y="24" width="6" height="6"></rect><rect x="30" y="24" width="6" height="6"></rect><rect x="36" y="24" width="6" height="6"></rect><rect x="42" y="24" width="6" height="6"></rect><rect x="48" y="24" width="6" height="6"></rect><rect x="54" y="24" width="6" height="6"></rect><rect x="60" y="24" width="6" height="6"></rect><rect x="66" y="24" width="6" height="6"></rect><rect x="30" y="30" width="6" height="6"></rect><rect x="36" y="30" width="6" height="6"></rect><rect x="54" y="30" width="6" height="6"></rect><rect x="60" y="30" width="6" height="6"></rect><rect x="30" y="36" width="6" height="6"></rect><rect x="36" y="36" width="6" height="6"></rect><rect x="54" y="36" width="6" height="6"></rect><rect x="60" y="36" width="6" height="6"></rect><rect x="30" y="42" width="6" height="6"></rect><rect x="36" y="42" width="6" height="6"></rect><rect x="54" y="42" width="6" height="6"></rect><rect x="60" y="42" width="6" height="6"></rect><rect x="30" y="48" width="6" height="6"></rect><rect x="36" y="48" width="6" height="6"></rect><rect x="54" y="48" width="6" height="6"></rect><rect x="60" y="48" width="6" height="6"></rect><rect x="30" y="54" width="6" height="6"></rect><rect x="36" y="54" width="6" height="6"></rect><rect x="54" y="54" width="6" height="6"></rect><rect x="60" y="54" width="6" height="6"></rect><rect x="30" y="60" width="6" height="6"></rect><rect x="36" y="60" width="6" height="6"></rect><rect x="54" y="60" width="6" height="6"></rect><rect x="60" y="60" width="6" height="6"></rect><rect x="30" y="66" width="6" height="6"></rect><rect x="36" y="66" width="6" height="6"></rect><rect x="54" y="66" width="6" height="6"></rect><rect x="60" y="66" width="6" height="6"></rect><rect x="30" y="72" width="6" height="6"></rect><rect x="36" y="72" width="6" height="6"></rect><rect x="54" y="72" width="6" height="6"></rect><rect x="60" y="72" width="6" height="6"></rect></g>
  </g>
  <text x="136" y="96.80000000000001" font-family="&#39;Rajdhani&#39;, sans-serif" font-weight="700" font-size="58" style="shape-rendering:auto">
    <tspan fill="#1a0050">Ota</tspan><tspan fill="#4c1d9e">Hub</tspan>
  </text>
  
</svg>