<?xml version="1.0"?>
<svg xmlns="http://www.w3.org/2000/svg" xmlns:xlink="http://www.w3.org/1999/xlink" version="1.1" viewBox="0 0 16 16" width="512" height="512" style="shape-rendering:crispEdges">
  <title>OtaHub Icon — Monochrome</title>
  <desc>OtaHub brand icon monochrome on white — for single-color print use.</desc>
  <rect id="background" width="16" height="16" fill="#ffffff"></rect>
  
  <g id="o-ring" fill="#070011">
    <rect x="3" y="0" width="1" height="1"></rect>
    <rect x="4" y="0" width="1" height="1"></rect>
    <rect x="5" y="0" width="1" height="1"></rect>
    <rect x="6" y="0" width="1" height="1"></rect>
    <rect x="7" y="0" width="1" height="1"></rect>
    <rect x="8" y="0" width="1" height="1"></rect>
    <rect x="9" y="0" width="1" height="1"></rect>
    <rect x="10" y="0" width="1" height="1"></rect>
    <rect x="11" y="0" width="1" height="1"></rect>
    <rect x="12" y="0" width="1" height="1"></rect>
    <rect x="1" y="1" width="1" height="1"></rect>
    <rect x="2" y="1" width="1" height="1"></rect>
    <rect x="13" y="1" width="1" height="1"></rect>
    <rect x="14" y="1" width="1" height="1"></rect>
    <rect x="0" y="2" width="1" height="1"></rect>
    <rect x="1" y="2" width="1" height="1"></rect>
    <rect x="14" y="2" width="1" height="1"></rect>
    <rect x="15" y="2" width="1" height="1"></rect>
    <rect x="0" y="3" width="1" height="1"></rect>
    <rect x="15" y="3" width="1" height="1"></rect>
    <rect x="0" y="4" width="1" height="1"></rect>
    <rect x="15" y="4" width="1" height="1"></rect>
    <rect x="0" y="5" width="1" height="1"></rect>
    <rect x="15" y="5" width="1" height="1"></rect>
    <rect x="0" y="6" width="1" height="1"></rect>
    <rect x="15" y="6" width="1" height="1"></rect>
    <rect x="0" y="7" width="1" height="1"></rect>
    <rect x="15" y="7" width="1" height="1"></rect>
    <rect x="0" y="8" width="1" height="1"></rect>
    <rect x="15" y="8" width="1" height="1"></rect>
    <rect x="0" y="9" width="1" height="1"></rect>
    <rect x="15" y="9" width="1" height="1"></rect>
    <rect x="0" y="10" width="1" height="1"></rect>
    <rect x="15" y="10" width="1" height="1"></rect>
    <rect x="0" y="11" width="1" height="1"></rect>
    <rect x="15" y="11" width="1" height="1"></rect>
    <rect x="0" y="12" width="1" height="1"></rect>
    <rect x="15" y="12" width="1" height="1"></rect>
    <rect x="0" y="13" width="1" height="1"></rect>
    <rect x="1" y="13" width="1" height="1"></rect>
    <rect x="14" y="13" width="1" height="1"></rect>
    <rect x="15" y="13" width="1" height="1"></rect>
    <rect x="1" y="14" width="1" height="1"></rect>
    <rect x="2" y="14" width="1" height="1"></rect>
    <rect x="13" y="14" width="1" height="1"></rect>
    <rect x="14" y="14" width="1" height="1"></rect>
    <rect x="3" y="15" width="1" height="1"></rect>
    <rect x="4" y="15" width="1" height="1"></rect>
    <rect x="5" y="15" width="1" height="1"></rect>
    <rect x="6" y="15" width="1" height="1"></rect>
    <rect x="7" y="15" width="1" height="1"></rect>
    <rect x="8" y="15" width="1" height="1"></rect>
    <rect x="9" y="15" width="1" height="1"></rect>
    <rect x="10" y="15" width="1" height="1"></rect>
    <rect x="11" y="15" width="1" height="1"></rect>
    <rect x="12" y="15" width="1" height="1"></rect>
  </g>
  
  <g id="torii-gate" fill="#070011">
    <rect x="3" y="1" width="1" height="1"></rect>
    <rect x="4" y="1" width="1" height="1"></rect>
    <rect x="5" y="1" width="1" height="1"></rect>
    <rect x="6" y="1" width="1" height="1"></rect>
    <rect x="7" y="1" width="1" height="1"></rect>
    <rect x="8" y="1" width="1" height="1"></rect>
    <rect x="9" y="1" width="1" height="1"></rect>
    <rect x="10" y="1" width="1" height="1"></rect>
    <rect x="11" y="1" width="1" height="1"></rect>
    <rect x="12" y="1" width="1" height="1"></rect>
    <rect x="5" y="2" width="1" height="1"></rect>
    <rect x="6" y="2" width="1" height="1"></rect>
    <rect x="9" y="2" width="1" height="1"></rect>
    <rect x="10" y="2" width="1" height="1"></rect>
    <rect x="5" y="3" width="1" height="1"></rect>
    <rect x="6" y="3" width="1" height="1"></rect>
    <rect x="9" y="3" width="1" height="1"></rect>
    <rect x="10" y="3" width="1" height="1"></rect>
    <rect x="4" y="4" width="1" height="1"></rect>
    <rect x="5" y="4" width="1" height="1"></rect>
    <rect x="6" y="4" width="1" height="1"></rect>
    <rect x="7" y="4" width="1" height="1"></rect>
    <rect x="8" y="4" width="1" height="1"></rect>
    <rect x="9" y="4" width="1" height="1"></rect>
    <rect x="10" y="4" width="1" height="1"></rect>
    <rect x="11" y="4" width="1" height="1"></rect>
    <rect x="5" y="5" width="1" height="1"></rect>
    <rect x="6" y="5" width="1" height="1"></rect>
    <rect x="9" y="5" width="1" height="1"></rect>
    <rect x="10" y="5" width="1" height="1"></rect>
    <rect x="5" y="6" width="1" height="1"></rect>
    <rect x="6" y="6" width="1" height="1"></rect>
    <rect x="9" y="6" width="1" height="1"></rect>
    <rect x="10" y="6" width="1" height="1"></rect>
    <rect x="5" y="7" width="1" height="1"></rect>
    <rect x="6" y="7" width="1" height="1"></rect>
    <rect x="9" y="7" width="1" height="1"></rect>
    <rect x="10" y="7" width="1" height="1"></rect>
    <rect x="5" y="8" width="1" height="1"></rect>
    <rect x="6" y="8" width="1" height="1"></rect>
    <rect x="9" y="8" width="1" height="1"></rect>
    <rect x="10" y="8" width="1" height="1"></rect>
    <rect x="5" y="9" width="1" height="1"></rect>
    <rect x="6" y="9" width="1" height="1"></rect>
    <rect x="9" y="9" width="1" height="1"></rect>
    <rect x="10" y="9" width="1" height="1"></rect>
    <rect x="5" y="10" width="1" height="1"></rect>
    <rect x="6" y="10" width="1" height="1"></rect>
    <rect x="9" y="10" width="1" height="1"></rect>
    <rect x="10" y="10" width="1" height="1"></rect>
    <rect x="5" y="11" width="1" height="1"></rect>
    <rect x="6" y="11" width="1" height="1"></rect>
    <rect x="9" y="11" width="1" height="1"></rect>
    <rect x="10" y="11" width="1" height="1"></rect>
    <rect x="5" y="12" width="1" height="1"></rect>
    <rect x="6" y="12" width="1" height="1"></rect>
    <rect x="9" y="12" width="1" height="1"></rect>
    <rect x="10" y="12" width="1" height="1"></rect>
  </g>
</svg>